<svg width="10" height="10" viewBox="0 0 10 10" fill="none" xmlns="http://www.w3.org/2000/svg">
<path d="M4.6725 6.635L2.0175 3.968C1.93929 3.88602 1.8953 3.7773 1.8945 3.664C1.89292 3.54917 1.93702 3.43841 2.01709 3.35608C2.09717 3.27376 2.20666 3.22661 2.3215 3.225H2.3275C2.38647 3.22554 2.44475 3.23775 2.49899 3.26092C2.55322 3.28409 2.60233 3.31776 2.6435 3.36L5.0005 5.725L7.3565 3.36C7.44032 3.27569 7.55363 3.22728 7.6725 3.225C7.72936 3.225 7.78566 3.2362 7.8382 3.25796C7.89073 3.27972 7.93847 3.31162 7.97867 3.35182C8.01888 3.39203 8.05078 3.43976 8.07254 3.4923C8.0943 3.54483 8.1055 3.60114 8.1055 3.658V3.664C8.10596 3.71967 8.09532 3.77487 8.0742 3.82638C8.05308 3.87789 8.0219 3.92468 7.9825 3.964L5.3275 6.635C5.28554 6.67956 5.23485 6.715 5.17859 6.73909C5.12232 6.76317 5.0617 6.7754 5.0005 6.775C4.93929 6.77445 4.8788 6.7618 4.82251 6.73777C4.76622 6.71374 4.71523 6.67882 4.6725 6.635Z" fill="black"/>
</svg>
