<svg width="23" height="44" viewBox="0 0 23 44" fill="none" xmlns="http://www.w3.org/2000/svg">
<path d="M8.15581 25.9987V19.5417H8.08551L5.41951 25.9987H4.52881L1.86281 19.5417H1.79251V25.9987H0.808105V17.5436H2.03271L4.92721 24.5983H5.02101L7.91551 17.5436H9.14011V25.9987H8.15581ZM10.6724 24.2291C10.6724 23.0982 11.5044 22.4479 12.9751 22.36L14.7974 22.2487V21.6745C14.7974 20.8952 14.3111 20.4675 13.3677 20.4675C12.6118 20.4675 12.0845 20.7546 11.9439 21.2527H10.9244C11.0592 20.239 12.0553 19.5711 13.4029 19.5711C14.9439 19.5711 15.8052 20.3621 15.8052 21.6746V25.9988H14.8443V25.067H14.7505C14.3403 25.7408 13.6489 26.11 12.8052 26.11C11.5806 26.11 10.6724 25.3834 10.6724 24.2291ZM14.7974 23.6432V23.0631L13.0982 23.1744C12.1373 23.2389 11.7154 23.5728 11.7154 24.2056C11.7154 24.8501 12.2603 25.2251 12.9927 25.2251C14.0298 25.2252 14.7974 24.5455 14.7974 23.6432ZM21.7554 21.6159C21.5913 20.9889 21.0347 20.4792 20.1265 20.4792C18.9898 20.4792 18.2749 21.3874 18.2749 22.8171C18.2749 24.2761 19.0015 25.2019 20.1265 25.2019C20.9761 25.2019 21.5679 24.8093 21.7554 24.0945H22.7749C22.5933 25.2547 21.6499 26.1101 20.1323 26.1101C18.3628 26.1101 17.2319 24.8269 17.2319 22.8171C17.2319 20.8483 18.3569 19.571 20.1264 19.571C21.6616 19.571 22.5991 20.4909 22.7748 21.6159H21.7554Z" fill="black"/>
</svg>
