<svg width="15" height="44" viewBox="0 0 15 44" fill="none" xmlns="http://www.w3.org/2000/svg">
<path d="M14.298 27.202L10.428 23.332C11.129 22.403 11.55 21.251 11.55 20C11.55 16.94 9.06101 14.45 6.00001 14.45C2.94001 14.45 0.450012 16.94 0.450012 20C0.450012 23.061 2.94001 25.55 6.00001 25.55C7.25101 25.55 8.40301 25.129 9.33201 24.428L13.202 28.298C13.353 28.449 13.552 28.526 13.75 28.526C13.948 28.526 14.146 28.45 14.298 28.298C14.601 27.995 14.601 27.505 14.298 27.202ZM1.55001 20C1.55001 17.546 3.54701 15.55 6.00001 15.55C8.45401 15.55 10.45 17.547 10.45 20C10.45 22.453 8.45401 24.45 6.00001 24.45C3.54601 24.45 1.55001 22.454 1.55001 20Z" fill="black"/>
</svg>
