<svg width="93" height="44" viewBox="0 0 93 44" fill="none" xmlns="http://www.w3.org/2000/svg">
<path d="M9.05742 24.3487V25.2921H0.707825V24.3487H4.30552V19.4503H1.47542V18.5011H8.28992V19.4503H5.39542V24.3487H9.05742ZM13.6219 20.6632C12.8543 20.0128 11.8231 19.3566 10.7684 18.8292L11.3543 17.9503C12.4383 18.4659 13.5398 19.1398 14.2957 19.7491L13.6219 20.6632ZM10.9852 24.8995C13.8504 24.4893 16.5985 22.5733 17.9286 19.8722L18.6259 20.6515C17.1611 23.423 14.331 25.462 11.3896 25.8956L10.9852 24.8995ZM27.7782 18.6124C27.1512 22.1046 25.0887 24.9698 21.9423 26.1007L21.3212 25.2569C22.7099 24.7881 23.8642 23.9737 24.7255 22.9659C23.9345 22.3214 23.1435 21.7882 22.3642 21.3721L22.9501 20.628C23.8524 21.1085 24.6435 21.6124 25.3524 22.1397C25.9735 21.2139 26.3836 20.1827 26.577 19.1866H23.3485C22.6161 20.4112 21.6669 21.5011 20.6356 22.3682L19.8563 21.6944C21.3094 20.4815 22.6278 18.7061 23.2372 17.0362L24.2743 17.2882C24.1395 17.628 24.0223 17.9503 23.8641 18.2609H26.993L27.7782 18.6124ZM37.7098 21.0206V22.1046H29.2489V21.0206H37.7098ZM47.3895 21.296H43.9911C43.9325 23.4347 43.4286 25.128 40.7977 26.0655L40.1649 25.21C42.4325 24.4893 42.8602 23.1827 42.9129 21.2959H38.9051V20.3525H47.3895V21.296ZM46.2118 18.7062H40.0888V17.7687H46.2118V18.7062ZM56.3016 17.7218C55.5809 18.671 54.5731 19.632 53.4422 20.4933V26.0011H52.3641V21.2843C51.245 22.0402 50.0848 22.7257 49.0125 23.1945L48.4148 22.3449C50.946 21.2961 53.946 19.0929 55.4578 17.1008L56.3016 17.7218ZM60.4735 20.6632C59.7059 20.0128 58.6747 19.3566 57.62 18.8292L58.2059 17.9503C59.2899 18.4659 60.3914 19.1398 61.1473 19.7491L60.4735 20.6632ZM57.8368 24.8995C60.702 24.4893 63.4501 22.5733 64.7802 19.8722L65.4775 20.6515C64.0127 23.423 61.1826 25.462 58.2412 25.8956L57.8368 24.8995ZM67.0653 25.1046C68.7001 24.4073 70.0653 23.1476 71.0731 21.6944C70.077 21.0206 69.0106 20.3878 67.9793 19.8839L68.5535 19.0812C69.6258 19.5968 70.657 20.1828 71.6297 20.8214C72.3094 19.6671 72.7781 18.4425 73.0184 17.3175L74.0731 17.5167C73.7977 18.7999 73.2704 20.1476 72.5145 21.419C73.4872 22.1163 74.3778 22.8135 75.0926 23.4698L74.366 24.3253C73.7273 23.7101 72.8777 22.9894 71.9402 22.3097C70.8738 23.8449 69.4558 25.1632 67.7507 25.9308L67.0653 25.1046ZM79.4637 20.6632C78.6961 20.0128 77.6649 19.3566 76.6102 18.8292L77.1961 17.9503C78.2801 18.4659 79.3816 19.1398 80.1375 19.7491L79.4637 20.6632ZM76.827 24.8995C79.6922 24.4893 82.4403 22.5733 83.7704 19.8722L84.4677 20.6515C83.0029 23.423 80.1728 25.462 77.2314 25.8956L76.827 24.8995ZM92.0672 23.3643C90.9188 22.6084 89.5008 21.8526 88.0477 21.2139V26.001H86.993V17.1006H88.0477V20.1123C89.7411 20.833 91.3348 21.6475 92.6707 22.4385L92.0672 23.3643Z" fill="black"/>
</svg>
