<svg width="40" height="44" viewBox="0 0 40 44" fill="none" xmlns="http://www.w3.org/2000/svg">
<path d="M8.56451 20.1582V21.2598C8.56451 23.4571 7.97861 25.2325 5.16611 26.1465L4.59191 25.3145C7.07631 24.5821 7.54501 23.252 7.54501 21.2715V20.1582H4.63871V22.8184H3.60741V20.1582H1.66211V19.1973H3.60741V17.17H4.63861V19.1973H7.54481V17.1582H8.56431V19.1973H10.5565V20.1582H8.56451ZM11.6875 24.3828C12.502 23.6504 13.4277 22.4375 13.8086 21.4531L14.7578 21.834C14.2305 22.9414 13.3926 24.1016 12.5019 24.957L11.6875 24.3828ZM14.2656 26.0117V25.0039C14.6113 25.0742 14.9863 25.0859 15.2851 25.0859C15.7656 25.0859 15.9121 24.9218 15.9121 24.4765V20.287H12.168V19.3261H15.9121V17.1581H16.9668V19.3261H20.7109V20.287H16.9668V24.5936C16.9668 25.6659 16.5449 26.0819 15.5488 26.0819C15.2148 26.082 14.7461 26.0586 14.2656 26.0117ZM18.1035 21.8691L18.959 21.3535C19.8438 22.3613 20.5528 23.334 21.1563 24.3301L20.2305 24.8574C19.7148 23.8613 18.9707 22.8418 18.1035 21.8691ZM18.5605 17.7441C18.5605 17.0586 19.0878 16.5312 19.7734 16.5312C20.4355 16.5312 20.9746 17.0585 20.9746 17.7441C20.9746 18.4062 20.4355 18.9453 19.7734 18.9453C19.0879 18.9453 18.5605 18.4062 18.5605 17.7441ZM20.4473 17.7441C20.4473 17.3691 20.1485 17.0703 19.7735 17.0703C19.3926 17.0703 19.088 17.3691 19.088 17.7441C19.088 18.1015 19.3927 18.4179 19.7735 18.4179C20.1484 18.418 20.4473 18.1016 20.4473 17.7441ZM30.6016 22.1738H22.1407V21.0898H30.6016V22.1738ZM33.9766 21.2832V26.0703H32.9219V17.1699H33.9766V20.1816C35.67 20.9023 37.2637 21.7168 38.5996 22.5078L37.9961 23.4336C36.8477 22.6777 35.4297 21.9219 33.9766 21.2832Z" fill="black"/>
</svg>
