<svg width="24" height="44" viewBox="0 0 24 44" fill="none" xmlns="http://www.w3.org/2000/svg">
<path d="M14.9575 23.7002C14.9575 24.6022 14.1895 25.2822 13.1525 25.2822C12.4205 25.2822 11.8755 24.9072 11.8755 24.2622C11.8755 23.6302 12.2975 23.2962 13.2585 23.2312L14.9575 23.1202V23.7002ZM13.5625 19.6282C12.2155 19.6282 11.2195 20.2962 11.0845 21.3092H12.1035C12.2445 20.8112 12.7715 20.5242 13.5275 20.5242C14.4715 20.5242 14.9575 20.9522 14.9575 21.7312V22.3052L13.1355 22.4172C11.6645 22.5052 10.8325 23.1552 10.8325 24.2862C10.8325 25.4402 11.7405 26.1672 12.9655 26.1672C13.8095 26.1672 14.5005 25.7982 14.9105 25.1242H15.0045V26.0552H15.9655V21.7312C15.9655 20.4192 15.1035 19.6282 13.5625 19.6282ZM20.3315 25.2032C19.1765 25.2032 18.4855 24.3182 18.4855 22.8422C18.4855 21.3712 19.1825 20.4802 20.3315 20.4802C21.4735 20.4802 22.1885 21.3942 22.1885 22.8422C22.1885 24.3012 21.4795 25.2032 20.3315 25.2032ZM22.1655 17.1762V20.6792H22.0775C21.7195 19.9882 20.9755 19.5722 20.0965 19.5722C18.4915 19.5722 17.4425 20.8612 17.4425 22.8422C17.4425 24.8282 18.4795 26.1112 20.0965 26.1112C20.9695 26.1112 21.7195 25.6952 22.1185 24.9922H22.2115V26.0002H23.1725V17.1762H22.1655ZM6.77148 22.0452H4.90848V18.4822H6.77148C7.99648 18.4822 8.67048 19.1212 8.67048 20.2812C8.67048 21.4002 7.97348 22.0452 6.77148 22.0452ZM7.04748 17.5452H3.85348V26.0002H4.90848V22.9822H7.03548C8.62348 22.9822 9.75449 21.8632 9.75449 20.2812C9.75449 18.6702 8.64648 17.5452 7.04748 17.5452ZM0.983485 25.9992H1.99148V19.6832H0.983485V25.9992ZM0.784485 17.7622C0.784485 17.3752 1.10048 17.0582 1.48748 17.0582C1.87448 17.0582 2.19048 17.3752 2.19048 17.7622C2.19048 18.1482 1.87448 18.4652 1.48748 18.4652C1.10048 18.4652 0.784485 18.1482 0.784485 17.7622Z" fill="black"/>
</svg>
