<svg width="48" height="44" viewBox="0 0 48 44" fill="none" xmlns="http://www.w3.org/2000/svg">
<path d="M6.44919 21.5352C7.48039 20.8907 8.28319 19.8829 8.60539 19.004H1.65619V18.043H9.18549L10.0468 18.4649C9.43739 19.9532 8.46479 21.3536 7.16399 22.1973L6.44919 21.5352ZM2.33009 25.3496C4.50389 24.3418 4.88479 22.8535 4.88479 20.7324V19.8535H5.94529V20.7441C5.94529 22.9648 5.47649 24.8867 3.01559 26.1171L2.33009 25.3496ZM12.6719 26.1348L12.0567 25.2676C14.9395 24.3653 16.7266 21.9219 17.1075 19.666H13.8204C13.1231 20.7207 12.2618 21.6933 11.3477 22.4844L10.545 21.8223C12.0684 20.5625 13.3516 18.8223 14.0372 17.0821L15.0567 17.3223C14.8633 17.8028 14.6465 18.2715 14.3829 18.7285H17.5411L18.379 19.0742C17.8047 22.3496 15.8594 25.0742 12.6719 26.1348ZM25.8438 24.8691C26.4473 24.8691 27.3672 24.8105 28.1348 24.7168V25.7363C27.3907 25.7949 26.4356 25.8183 25.8438 25.8183C25.211 25.8183 24.7422 25.8066 24.1915 25.7714C22.8438 25.7011 22.3048 25.1855 22.3048 23.8905V20.8788L20.0958 21.2011L19.9435 20.2519L22.3048 19.9179V17.1054H23.3595V19.7597L27.7657 19.121L28.5333 19.5429C28.0177 20.9726 27.3204 22.2792 26.3712 23.2636L25.5685 22.7128C26.3478 21.9218 26.8751 20.9726 27.1798 20.1464L23.3595 20.7323V23.7792C23.3595 24.5702 23.6876 24.7987 24.5724 24.8339C24.9941 24.8691 25.4512 24.8691 25.8438 24.8691ZM36.8125 20.1582V21.2598C36.8125 23.4571 36.2266 25.2325 33.4141 26.1465L32.8399 25.3145C35.3243 24.5821 35.793 23.252 35.793 21.2715V20.1582H32.8868V22.8184H31.8556V20.1582H29.9103V19.1973H31.8556V17.17H32.8868V19.1973H35.793V17.1582H36.8125V19.1973H38.8047V20.1582H36.8125ZM42.0742 17.5977V22.5782H41.0195V17.5977H42.0742ZM46.8613 21.1016C46.8613 23.3692 46 25.2325 43.0234 26.1465L42.4492 25.2676C45.1269 24.5117 45.7949 23.0235 45.7949 21.0899V17.4454H46.8613V21.1016Z" fill="black"/>
</svg>
