<svg width="27" height="44" viewBox="0 0 27 44" fill="none" xmlns="http://www.w3.org/2000/svg">
<path d="M9.0348 25.3938L8.1715 26.1375C7.3317 25.1419 6.3126 24.1106 5.2447 23.2107C4.1534 24.4705 2.8463 25.4895 1.3712 26.1375L0.711502 25.3338C3.6138 24.0867 5.6886 21.4359 6.3604 19.181H1.4191V18.2459H6.9L7.7037 18.6175C7.3077 19.973 6.6964 21.2801 5.8565 22.4193C7.0201 23.367 8.0636 24.3621 9.0348 25.3938ZM12.194 21.388V26.1732H11.1383V17.2743H12.194V20.2846C13.8849 21.0043 15.4801 21.8198 16.8112 22.6113L16.2116 23.5351C15.0602 22.7791 13.6451 22.0237 12.194 21.388ZM22.4401 21.6399C23.4718 20.992 24.2751 19.9846 24.5988 19.1091H17.655V18.1496H25.1745L26.0383 18.5695C25.4265 20.0563 24.4553 21.4596 23.1599 22.2995L22.4401 21.6399ZM18.3263 25.4539C20.4972 24.4461 20.881 22.9593 20.881 20.8362V19.9607H21.9367V20.8484C21.9367 23.0672 21.4689 24.9861 19.0099 26.2214L18.3263 25.4539Z" fill="black"/>
</svg>
