<svg width="20" height="20" viewBox="0 0 20 20" fill="none" xmlns="http://www.w3.org/2000/svg">
<g clip-path="url(#clip0_1_98)">
<path d="M19.4578 13.8905L14.14 10.0601C15.4584 8.94874 16.1279 7.51303 16.0081 6.05404C15.8883 4.59505 14.9886 3.22612 13.4975 2.23436C12.0065 1.24259 10.04 0.705033 8.01054 0.734421C5.98104 0.763808 4.04618 1.35786 2.61174 2.39199C1.1773 3.42611 0.354715 4.81998 0.31651 6.28125C0.278304 7.74253 1.02744 9.1577 2.40681 10.23C3.78618 11.3022 5.68862 11.9483 7.71515 12.0326C9.74167 12.117 11.7349 11.6331 13.2767 10.6825L18.5933 14.5129C18.649 14.5568 18.7165 14.5922 18.7917 14.6168C18.8669 14.6414 18.9482 14.6548 19.0308 14.6562C19.1134 14.6576 19.1955 14.6469 19.2722 14.6247C19.3489 14.6026 19.4185 14.5695 19.4769 14.5275C19.5353 14.4854 19.5813 14.4352 19.612 14.38C19.6428 14.3248 19.6576 14.2657 19.6558 14.2062C19.6539 14.1468 19.6352 14.0882 19.601 14.0341C19.5668 13.9799 19.5177 13.9313 19.4567 13.8913L19.4578 13.8905ZM1.58555 6.40006C1.58643 5.45939 1.97465 4.54003 2.70114 3.7582C3.42762 2.97637 4.45975 2.36718 5.66704 2.00764C6.87432 1.6481 8.20256 1.55435 9.48384 1.73826C10.7651 1.92216 11.9419 2.37545 12.8654 3.04083C13.7889 3.70621 14.4177 4.55379 14.6723 5.47644C14.9268 6.39908 14.7957 7.35535 14.2956 8.22435C13.7954 9.09336 12.9486 9.83608 11.8622 10.3586C10.7759 10.8812 9.49871 11.1601 8.19222 11.1601C6.44025 11.1577 4.76102 10.6554 3.5226 9.76313C2.28419 8.87087 1.58761 7.66149 1.58555 6.40006Z" fill="#86868B"/>
</g>
<defs>
<clipPath id="clip0_1_98">
<rect width="20" height="20" fill="white"/>
</clipPath>
</defs>
</svg>
