<svg width="60" height="60" viewBox="0 0 60 60" fill="none" xmlns="http://www.w3.org/2000/svg">
<path d="M46.6032 46C50.3375 46 52.2525 44.085 52.2525 40.4081V19.611C52.2525 15.915 50.3375 14 46.6032 14H13.3967C9.66246 14 7.74744 15.8959 7.74744 19.611V40.4081C7.74744 44.1041 9.66246 46 13.3967 46H46.6032ZM23.1059 29.6266H10.1221V19.7259C10.1221 17.5236 11.2902 16.3746 13.435 16.3746H29.0616V23.9198C27.8169 21.1622 25.4231 19.3238 22.8953 19.3238C20.31 19.3238 18.4333 21.2005 18.4333 23.9007C18.4333 26.4285 20.4823 28.535 23.1059 29.6266ZM49.8779 29.6266H36.8749C39.4985 28.535 41.5476 26.4285 41.5476 23.9007C41.5476 21.2005 39.6708 19.3238 37.0856 19.3238C34.5577 19.3238 32.164 21.1622 30.9192 23.9198V16.3746H46.5458C48.6714 16.3746 49.8779 17.5236 49.8779 19.7259V29.6266ZM28.7744 29.4351H28.1999C24.1592 29.4351 20.5398 26.6966 20.5398 24.0539C20.5398 22.4644 21.5356 21.4494 23.0102 21.4494C25.9976 21.4494 28.7744 24.9539 28.7744 28.918V29.4351ZM31.7809 29.4351H31.2064V28.918C31.2064 24.9539 33.9832 21.4494 36.9707 21.4494C38.4452 21.4494 39.441 22.4644 39.441 24.0539C39.441 26.6966 35.8216 29.4351 31.7809 29.4351ZM46.5458 43.6254H30.9192V32.5183H31.0341C32.8342 37.0377 37.6026 40.2932 40.3985 40.7911C41.2603 40.9252 41.7965 40.2932 41.7965 39.623C41.7965 38.8953 41.3752 38.4165 40.5134 38.3208C37.9473 37.9952 33.8492 34.395 32.3363 31.3309H49.8779V40.2741C49.8779 42.4955 48.6714 43.6254 46.5458 43.6254ZM29.0616 43.6254H13.435C11.2902 43.6254 10.1221 42.4955 10.1221 40.2741V31.3309H27.6445C26.1508 34.395 22.0335 37.9952 19.4674 38.3208C18.6056 38.4165 18.1843 38.8953 18.1843 39.623C18.1843 40.2932 18.7205 40.9252 19.5823 40.7911C22.3782 40.2932 27.1466 37.0377 28.9467 32.5183H29.0616V43.6254Z" fill="#1D1D1F"/>
</svg>
